<svg xmlns="http://www.w3.org/2000/svg" width="20" height="23"><g fill="none" fill-rule="evenodd"><path fill="#000" fill-rule="nonzero" d="M6.15 19.25H1.7c-.937 0-1.7-.752-1.7-1.677 0-.49.217-.955.595-1.275a.671.671 0 0 1 .078-.057 6.402 6.402 0 0 0 2.244-4.859V8.708C2.917 5.01 5.97 2 9.722 2c.156 0 .324.003.48.029a.72.72 0 0 1 .6.827.732.732 0 0 1-.84.59c-.077-.012-.163-.009-.24-.009-2.947 0-5.347 2.365-5.347 5.271v2.674a7.836 7.836 0 0 1-2.822 6.01l-.043.032a.235.235 0 0 0-.052.149c0 .13.111.24.243.24h16.042c.132 0 .243-.11.243-.24a.227.227 0 0 0-.052-.149 7.834 7.834 0 0 1-2.864-6.042v-1.044c0-.397.326-.72.729-.72.402 0 .729.323.729.72v1.044c0 1.866.817 3.633 2.247 4.862a.708.708 0 0 1 .074.055c.379.319.596.783.596 1.274 0 .925-.764 1.677-1.702 1.677h-4.448c-.34 1.639-1.813 2.875-3.573 2.875S6.488 20.889 6.15 19.25zm1.51 0a2.19 2.19 0 0 0 2.062 1.438 2.19 2.19 0 0 0 2.063-1.438H7.66z"/><path stroke="#000" stroke-linecap="round" stroke-width="1.5" d="M13.368 3.438l3.89 3.89m-.001-3.89l-3.889 3.89"/></g></svg>
